# xmcd
#
# Track frame offsets: 
#        150
#        7958
#        13588
#        31829
#        57306
#        67961
#        87107
#        88890
#        104696
#        107860
#        160179
#        170222
#        227153
#
# Disc length: 3654 seconds
#
# Revision: 0
# Processed by: cddbd v1.5.2PL0 Copyright (c) Steve Scherf et al.
# Submitted via: ExactAudioCopy v0.95b4
#
DISCID=a20e440d
DTITLE=The Beatles  - AB  Road - Complete Purple Chick Set v1.1 Jan.26
DTITLE=Various Artist - D4  FLAC
DYEAR=1900
DGENRE=
TTITLE0=Dialogue and jamming
TTITLE1=Let It Be 26.71
TTITLE2=Let It Be 26.72
TTITLE3=Let It Be 26.73
TTITLE4=Let It Be 26.74
TTITLE5=Let It Be 26.75
TTITLE6=Let It Be 26.76
TTITLE7=Little Pillow Pills 26.77
TTITLE8=Let It Be 26.75P
TTITLE9=I Told You Before 26.78
TTITLE10=I Told You Before 26.79
TTITLE11=I Told You Before 26.80
TTITLE12=The Long And Winding Road 26.81
EXTD=
EXTT0=
EXTT1=
EXTT2=
EXTT3=
EXTT4=
EXTT5=
EXTT6=
EXTT7=
EXTT8=
EXTT9=
EXTT10=
EXTT11=
EXTT12=
PLAYORDER=
